<svg xmlns="http://www.w3.org/2000/svg" width="536.013" height="561.033" viewBox="0 0 141.82 148.44"><defs><radialGradient id="a" cx="99.232" cy="126" r="62.073" gradientTransform="matrix(1 0 0 1.21 -10.054 -28.048)" gradientUnits="userSpaceOnUse"><stop offset="0" stop-color="#d300b7"/><stop offset="1" stop-color="#ffab18"/></radialGradient></defs><g transform="translate(-29.587 -44.314)scale(.99451)"><ellipse cx="101.05" cy="119.19" fill="none" stroke="#58d7ff" stroke-width="14.924" rx="63.841" ry="67.165" style="paint-order:stroke fill markers"/><path fill="url(#a)" d="M52.575 49.306a80.4 80.4 0 0 0-25.471 22.966c23.792 16.273 66.553 50.376 48.544 125.56a80.4 80.4 0 0 0 13.922 1.692c43.931-81.191-24.357-140.25-36.995-150.22zm88.358 49.502c-6.477-.225-34.284 28-34.284 28s2.147 9.249 1.359 20.618c0 0 13.596-11.092 26.308-21.352-.696 20.462 13.596 49.918 13.596 49.918l1.918-2.183s-8.117-16.764-2.607-58.094c.865-.688 1.692-1.344 2.456-1.948 4.72-3.723-2.164-9.146-7.846-14.623-.223-.215-.526-.323-.9-.336" style="paint-order:stroke fill markers"/></g></svg>